<svg width="536" height="425" viewBox="0 0 536 425" fill="none" xmlns="http://www.w3.org/2000/svg">
<path opacity="0.2" d="M116.423 76.145C116.423 76.145 205.058 -14.3404 307.982 29.5757C410.906 73.4917 323.082 113.409 341.37 112.247C359.658 111.085 450.408 46.2065 488.12 147.041C525.831 247.876 501.906 303.287 426.61 311.201C351.315 319.115 458.29 350.803 413.974 378.688C369.658 406.573 202.753 440.898 163.795 394.592C124.837 348.287 164.1 290.241 164.1 290.241C164.1 290.241 115.393 364.767 73.5101 324.66C31.6272 284.552 31.5707 181.851 73.9746 165.731C116.378 149.611 147.443 130.678 126.663 132.023C105.882 133.371 87.9221 104.509 116.423 76.145Z" fill="#6A8185"/>
<path d="M228.548 195.594C228.548 195.594 195.468 193.488 184.98 161.324C174.491 129.159 137.735 101.776 131.817 89.9571C125.9 78.1385 172.429 75.3105 198.533 96.3018C224.637 117.293 245.041 171.464 228.548 195.594Z" fill="#3E2D4A"/>
<path d="M224.079 192.766C222.788 191.557 221.473 187.446 219.482 181.222C214.177 164.639 204.302 133.77 179.592 112.568C162.314 97.7421 151.675 91.6146 145.794 89.0855C139.412 86.3412 137.102 87.1209 137.08 87.1291L136.854 86.6535C137.226 86.5077 146.451 83.416 179.99 112.194C204.812 133.494 214.715 164.45 220.036 181.08C221.933 187.008 223.302 191.291 224.495 192.409L224.079 192.766Z" fill="#FEFADA"/>
<path d="M173.841 107.55C173.403 107.55 172.917 107.208 172.557 106.92C166.946 102.415 144.375 102.832 144.149 102.84L144.135 102.323C145.073 102.304 167.163 101.894 172.941 106.535C173.537 107.014 173.828 107.065 173.894 107.019C175.097 106.287 170.527 95.0971 168.33 89.7203C167.012 86.4943 166.264 84.6444 166.199 84.145L166.772 84.0861C166.831 84.5493 167.776 86.8634 168.871 89.5425C173.36 100.533 175.542 106.642 174.218 107.447C174.1 107.519 173.972 107.55 173.841 107.55Z" fill="#FEFADA"/>
<path d="M194.953 130.026C194.57 130.026 194.118 129.882 193.588 129.593C186.581 125.785 167.72 128.178 167.529 128.203L167.448 127.691C168.23 127.59 186.705 125.247 193.887 129.151C194.541 129.507 195.012 129.596 195.286 129.417C196.599 128.559 194.991 122.456 193.289 115.993C191.366 108.691 189.185 100.416 189.616 94.8314L190.192 94.8666C189.767 100.374 191.937 108.608 193.85 115.874C196.02 124.114 197.173 128.825 195.626 129.834C195.43 129.963 195.208 130.026 194.953 130.026Z" fill="#FEFADA"/>
<path d="M210.228 156.814C209.692 156.814 209.266 156.248 208.982 155.803C204.782 149.206 179.972 144.123 179.721 144.073L179.848 143.569C180.88 143.778 205.158 148.754 209.483 155.547C209.976 156.322 210.228 156.299 210.256 156.293C211.35 156.062 211.792 149.005 212.22 142.179C212.792 133.065 213.502 121.721 215.977 115.506L216.52 115.68C214.072 121.825 213.364 133.128 212.795 142.209C212.207 151.586 211.834 156.492 210.388 156.798C210.334 156.807 210.281 156.814 210.228 156.814Z" fill="#FEFADA"/>
<path d="M218.51 182.031C215.755 182.031 210.137 178.939 203.755 175.427C197.839 172.171 191.722 168.805 187.622 167.801L187.775 167.302C191.953 168.325 198.106 171.711 204.057 174.987C210.586 178.58 217.336 182.292 219.222 181.387C219.541 181.232 219.705 180.928 219.723 180.457C219.96 174.461 230.234 153.213 230.671 152.312L231.199 152.518C231.093 152.739 220.531 174.577 220.3 180.476C220.273 181.138 220.002 181.597 219.494 181.843C219.225 181.97 218.896 182.031 218.51 182.031Z" fill="#FEFADA"/>
<path d="M240.595 239.499C240.595 239.499 271.113 227.859 269.372 194.382C267.632 160.905 292.463 124.288 293.775 111.385C295.087 98.4825 250.061 109.382 232.985 136.847C215.909 164.312 216.251 221.492 240.595 239.499Z" fill="#CA9661"/>
<path d="M243.795 235.521L243.272 235.304C243.995 233.9 243.739 229.45 243.383 223.291C242.386 206.012 240.53 173.85 256.282 146.467C277.586 109.436 287.398 109.698 287.817 109.73L287.776 110.246C287.697 110.255 277.815 110.165 256.795 146.705C241.114 173.962 242.964 206.034 243.959 223.265C244.331 229.729 244.578 234.001 243.795 235.521Z" fill="#FEFADA"/>
<path d="M260.192 140.315C260.136 140.315 260.078 140.309 260.019 140.293C258.475 139.918 258.322 133.506 258.584 121.804C258.648 118.949 258.703 116.484 258.591 116.029L259.154 115.919C259.275 116.41 259.236 118.379 259.16 121.815C259.032 127.54 258.766 139.454 260.169 139.795C260.248 139.809 260.504 139.685 260.894 139.059C264.678 132.984 285.714 126.928 286.607 126.672L286.782 127.166C286.566 127.228 265.07 133.414 261.396 139.312C261.123 139.754 260.71 140.315 260.192 140.315Z" fill="#FEFADA"/>
<path d="M248.213 167.754C248.105 167.754 247.998 167.74 247.891 167.711C246.062 167.207 245.445 162.416 244.51 153.991C243.686 146.561 242.752 138.142 240.355 133.057L240.886 132.857C243.317 138.012 244.255 146.474 245.084 153.94C245.817 160.548 246.51 166.79 248.061 167.217C248.386 167.303 248.799 167.083 249.287 166.557C254.664 160.77 272.985 157.595 273.76 157.464L273.869 157.972C273.68 158.004 254.974 161.243 249.73 166.889C249.19 167.468 248.69 167.754 248.213 167.754Z" fill="#FEFADA"/>
<path d="M243.64 197.516C242.165 197.516 240.038 192.991 236.14 184.419C232.31 175.997 227.542 165.516 223 160.419L223.451 160.095C228.045 165.251 232.829 175.771 236.673 184.224C239.529 190.505 242.483 196.999 243.62 196.999C243.629 196.999 243.637 196.999 243.645 196.998C243.673 196.996 243.92 196.948 244.106 196.066C245.734 188.38 266.888 176.592 267.789 176.093L268.091 176.534C267.874 176.655 246.252 188.701 244.672 196.163C244.555 196.716 244.328 197.457 243.702 197.513C243.682 197.515 243.66 197.516 243.64 197.516Z" fill="#FEFADA"/>
<path d="M244.421 223.869C244.336 223.869 244.253 223.863 244.172 223.851C243.603 223.768 243.181 223.412 242.916 222.794C240.558 217.284 222.654 199.713 222.475 199.536L222.9 199.187C223.64 199.912 241.057 217.008 243.454 222.608C243.643 223.049 243.908 223.288 244.265 223.341C246.361 223.639 251.414 218.168 256.286 212.867C260.727 208.034 265.318 203.036 268.899 200.85L269.223 201.277C265.709 203.422 261.145 208.389 256.731 213.194C251.48 218.908 246.922 223.869 244.421 223.869Z" fill="#FEFADA"/>
<path d="M153.188 340.782C153.188 340.782 126.681 322.903 95.2445 341.008C63.8075 359.114 16.0429 358.15 2.93332 363.588C-10.1751 369.025 22.8755 398.543 57.927 398.061C92.9796 397.578 147.991 368.7 153.188 340.782Z" fill="#CA9661"/>
<path d="M41.3735 375.477C8.18455 375.477 4.47551 369.337 4.31876 369.043L4.83742 368.817C4.88237 368.894 9.7855 376.6 55.5261 374.635C89.6786 373.174 119.704 355.688 135.834 346.293C141.888 342.768 145.888 340.438 147.746 340.285L147.799 340.8C146.082 340.941 141.915 343.368 136.149 346.726C119.972 356.147 89.8619 373.683 55.5538 375.151C50.3118 375.377 45.6035 375.477 41.3735 375.477Z" fill="#FEFADA"/>
<path d="M25.0228 388.59L24.6332 388.208C25.047 387.869 26.9649 386.913 30.3201 385.253C35.9101 382.487 47.541 376.733 47.1687 375.471C47.1468 375.401 46.9024 375.277 46.0944 375.277C46.0656 375.277 46.0357 375.278 46.0057 375.278C38.2142 375.278 21.9626 362.068 21.2722 361.503L21.6606 361.122C21.8278 361.258 38.4366 374.761 46.0045 374.761C46.0691 374.761 46.1302 374.759 46.197 374.759C46.8102 374.759 47.5767 374.833 47.7265 375.34C48.1368 376.728 42.0235 380.055 30.6001 385.707C27.812 387.084 25.4054 388.274 25.0228 388.59Z" fill="#FEFADA"/>
<path d="M50.5827 394.232L50.1228 393.921C53.8825 389.452 61.5784 384.489 68.3695 380.11C74.3791 376.235 80.0568 372.574 79.6925 371.156C79.6165 370.859 79.1958 370.65 78.442 370.532C70.1664 369.252 57.935 356.611 57.4187 356.075L57.8555 355.738C57.98 355.868 70.4672 368.774 78.5399 370.023C79.5577 370.18 80.119 370.513 80.2539 371.039C80.6838 372.711 76.3685 375.588 68.706 380.53C61.9472 384.888 54.2882 389.826 50.5827 394.232Z" fill="#FEFADA"/>
<path d="M85.6722 394.021L85.1351 393.833C87.8114 387.685 95.5695 378.704 101.804 371.488C106.472 366.085 111.299 360.498 110.643 359.68C110.627 359.66 110.459 359.491 109.512 359.788C101.276 362.368 79.3168 351.838 78.3855 351.389L78.6587 350.935C78.8846 351.042 101.329 361.807 109.322 359.3C109.915 359.117 110.743 358.921 111.111 359.378C111.978 360.459 108.672 364.383 102.259 371.806C96.049 378.995 88.3185 387.943 85.6722 394.021Z" fill="#FEFADA"/>
<path d="M123.687 374.855L123.137 374.7C123.467 373.762 131.249 351.679 135.455 347.015C135.786 346.648 135.885 346.321 135.756 346.018C134.997 344.223 127.186 343.055 119.632 341.924C112.745 340.893 105.625 339.828 101.723 338.142L101.973 337.676C105.801 339.331 112.88 340.39 119.727 341.415C128.146 342.674 135.418 343.763 136.295 345.834C136.499 346.318 136.368 346.824 135.903 347.339C131.767 351.927 123.768 374.626 123.687 374.855Z" fill="#FEFADA"/>
<path d="M319.564 359.008C319.564 359.008 291.239 343.536 261.923 364.307C232.607 385.078 184.965 388.302 172.511 394.863C160.057 401.424 196.161 427.905 230.993 424.356C265.826 420.807 317.431 387.249 319.564 359.008Z" fill="#6E6C7B"/>
<path d="M195.499 404.143C177.451 404.143 174.633 400.395 174.482 400.172L174.975 399.903L174.728 400.037L174.973 399.901C175.026 399.974 180.745 407.204 226.052 401.253C259.882 396.808 287.861 376.776 302.893 366.014C308.535 361.976 312.262 359.307 314.095 358.993L314.204 359.499C312.509 359.79 308.627 362.57 303.253 366.418C288.179 377.211 260.121 397.298 226.136 401.764C212.808 403.516 202.878 404.143 195.499 404.143Z" fill="#FEFADA"/>
<path d="M197.214 417.812L196.786 417.466C197.16 417.092 198.965 415.973 202.122 414.028C207.384 410.786 218.334 404.039 217.826 402.817C217.797 402.747 217.533 402.637 216.736 402.715C209.04 403.502 191.285 391.686 190.534 391.182L190.879 390.768C191.061 390.89 209.201 402.937 216.671 402.203C217.294 402.139 218.149 402.117 218.366 402.637C218.925 403.982 213.203 407.828 202.447 414.455C199.825 416.069 197.561 417.465 197.214 417.812Z" fill="#FEFADA"/>
<path d="M223.265 421.19L222.773 420.919C226.028 416.143 233.148 410.529 239.43 405.576C244.989 401.192 250.241 397.052 249.724 395.672C249.616 395.384 249.174 395.213 248.413 395.162C240.037 394.613 226.489 383.103 225.916 382.613L226.314 382.24C226.453 382.358 240.284 394.11 248.454 394.647C249.486 394.714 250.079 394.995 250.271 395.507C250.879 397.134 246.899 400.375 239.811 405.964C233.559 410.893 226.475 416.48 223.265 421.19Z" fill="#FEFADA"/>
<path d="M258.166 417.905L257.611 417.765C259.605 411.411 266.35 401.795 271.769 394.067C275.827 388.281 280.022 382.298 279.281 381.542C279.262 381.522 279.077 381.37 278.168 381.748C270.257 385.043 247.251 376.48 246.276 376.115L246.498 375.638C246.734 375.726 270.243 384.471 277.925 381.279C278.494 381.043 279.296 380.778 279.714 381.201C280.694 382.201 277.831 386.394 272.257 394.343C266.858 402.043 260.138 411.624 258.166 417.905Z" fill="#FEFADA"/>
<path d="M293.915 395.501L293.35 395.394C293.576 394.431 298.918 371.773 302.596 366.763C302.886 366.368 302.949 366.035 302.787 365.745C301.836 364.025 293.934 363.545 286.292 363.082C279.327 362.66 272.126 362.223 268.06 360.886L268.258 360.401C272.247 361.712 279.407 362.146 286.332 362.566C294.85 363.083 302.205 363.53 303.305 365.516C303.562 365.979 303.485 366.494 303.079 367.048C299.459 371.977 293.969 395.266 293.915 395.501Z" fill="#FEFADA"/>
<path d="M385.532 359.008C385.532 359.008 413.857 343.536 443.173 364.307C472.489 385.078 520.132 388.302 532.585 394.863C545.039 401.424 508.935 427.905 474.103 424.356C439.27 420.807 387.665 387.249 385.532 359.008Z" fill="#3E2D4A"/>
<path d="M509.598 404.143C502.218 404.143 492.293 403.517 478.961 401.764C444.976 397.299 416.917 377.21 401.842 366.417C396.469 362.569 392.587 359.79 390.894 359.499L391.002 358.993C392.836 359.307 396.561 361.975 402.203 366.013C417.234 376.775 445.213 396.808 479.045 401.253C524.355 407.205 530.073 399.975 530.125 399.901L530.616 400.172C530.464 400.395 527.642 404.143 509.598 404.143Z" fill="#FEFADA"/>
<path d="M507.883 417.812C507.535 417.465 505.273 416.07 502.653 414.456C491.894 407.828 486.171 403.981 486.731 402.636C486.947 402.116 487.798 402.138 488.426 402.202C495.911 402.937 514.036 390.89 514.218 390.767L514.562 391.181C513.812 391.685 496.051 403.506 488.362 402.714C487.575 402.636 487.301 402.744 487.273 402.816C486.765 404.038 497.717 410.787 502.981 414.029C506.135 415.973 507.939 417.091 508.313 417.465L507.883 417.812Z" fill="#FEFADA"/>
<path d="M481.832 421.19C478.622 416.48 471.537 410.893 465.287 405.964C458.198 400.375 454.217 397.134 454.827 395.507C455.018 394.995 455.613 394.714 456.642 394.647C464.814 394.11 478.644 382.358 478.783 382.24L479.181 382.613C478.608 383.103 465.061 394.612 456.685 395.162C455.922 395.213 455.481 395.384 455.372 395.672C454.856 397.052 460.106 401.193 465.667 405.576C471.949 410.529 479.07 416.143 482.323 420.919L481.832 421.19Z" fill="#FEFADA"/>
<path d="M446.932 417.905C444.96 411.624 438.24 402.041 432.839 394.342C427.265 386.394 424.403 382.2 425.383 381.201C425.8 380.778 426.602 381.043 427.172 381.279C434.857 384.477 458.363 375.726 458.599 375.638L458.822 376.115C457.846 376.481 434.843 385.042 426.928 381.748C426.018 381.369 425.835 381.521 425.815 381.542C425.073 382.298 429.269 388.282 433.328 394.067C438.747 401.795 445.492 411.411 447.485 417.765L446.932 417.905Z" fill="#FEFADA"/>
<path d="M411.183 395.501C411.129 395.265 405.637 371.977 402.02 367.047C401.613 366.493 401.537 365.978 401.794 365.515C402.892 363.529 410.248 363.082 418.766 362.565C425.691 362.145 432.851 361.711 436.84 360.4L437.038 360.885C432.972 362.222 425.77 362.659 418.806 363.081C411.164 363.544 403.263 364.024 402.311 365.744C402.15 366.034 402.212 366.368 402.503 366.762C406.18 371.773 411.523 394.431 411.749 395.392L411.183 395.501Z" fill="#FEFADA"/>
<path d="M366.421 167.699C366.421 167.699 398.95 173.483 418.509 144.93C438.067 116.377 481.564 98.6417 490.74 88.6378C499.917 78.6338 455.861 64.9147 424.517 78.9998C393.173 93.085 357.591 140.525 366.421 167.699Z" fill="#6A8185"/>
<path d="M371.562 166.026L371.265 165.583C372.744 164.787 375.323 160.978 378.892 155.707C388.906 140.921 407.545 113.397 437.742 98.712C478.55 78.8685 486.535 84.0323 486.853 84.2608L486.494 84.6672C486.474 84.6538 484.479 83.3551 477.515 84.4956C471.098 85.5471 459.036 88.9449 438.015 99.166C407.956 113.784 389.369 141.23 379.384 155.975C375.638 161.51 373.163 165.165 371.562 166.026Z" fill="#FEFADA"/>
<path d="M475.065 98.1537C474.849 98.0947 453.201 92.3591 446.461 95.3794C445.901 95.6317 445.108 95.9182 444.706 95.4953C443.665 94.4044 447.562 89.0276 455.117 79.4858C456.96 77.1593 458.551 75.1492 458.743 74.716L459.279 74.9083C459.071 75.3757 457.805 76.9836 455.586 79.7857C451.889 84.4542 444.197 94.1686 445.142 95.1592C445.195 95.214 445.483 95.2398 446.204 94.9172C453.136 91.8049 474.33 97.4164 475.23 97.6574L475.065 98.1537Z" fill="#FEFADA"/>
<path d="M445.065 117.1C444.889 117.03 427.396 110.267 419.516 112.285C418.52 112.542 417.856 112.458 417.481 112.037C416.284 110.698 418.778 106.426 423.291 98.9891C427.27 92.4325 431.779 85.0001 432.985 79.5872L433.55 79.6885C432.326 85.178 427.795 92.6466 423.796 99.2363C420.258 105.069 416.915 110.577 417.929 111.714C418.141 111.951 418.622 111.976 419.357 111.788C427.43 109.719 444.567 116.342 445.293 116.625L445.065 117.1Z" fill="#FEFADA"/>
<path d="M395.662 134.636C395.547 134.636 395.435 134.614 395.325 134.56C394.021 133.924 395.101 129.101 397.285 119.917C399.401 111.022 402.035 99.9508 401.478 93.4448L402.052 93.4055C402.617 99.9859 399.973 111.097 397.85 120.025C396.259 126.711 394.614 133.624 395.601 134.106C395.627 134.118 395.857 134.207 396.568 133.568C402.733 128.036 427.616 128.967 428.672 129.012L428.648 129.528C428.388 129.519 402.964 128.562 396.976 133.933C396.619 134.253 396.128 134.636 395.662 134.636Z" fill="#FEFADA"/>
<path d="M381.535 157.129C380.453 157.129 379.65 156.959 379.191 156.569C378.774 156.214 378.646 155.706 378.817 155.061C380.324 149.315 376.545 125.753 376.507 125.515L377.076 125.442C377.234 126.415 380.91 149.34 379.377 155.18C379.257 155.64 379.325 155.972 379.589 156.195C381.14 157.514 388.743 155.527 396.096 153.604C402.798 151.85 409.728 150.037 414.06 150.037V150.554C409.81 150.554 402.921 152.357 396.258 154.1C390.158 155.696 384.678 157.129 381.535 157.129Z" fill="#FEFADA"/>
<path d="M117.818 285.678C117.818 285.678 84.6602 286.136 71.123 254.9C57.5858 223.664 18.3389 199.222 11.3092 187.904C4.27954 176.586 50.3648 170.175 78.3855 189.072C106.406 207.97 131.934 260.363 117.818 285.678Z" fill="#6A8185"/>
<path d="M113.094 283.205C111.692 282.1 109.987 278.106 107.406 272.061C100.528 255.948 87.7273 225.956 61.0747 206.741C42.4385 193.304 31.2514 188.022 25.1484 185.956C18.5256 183.714 16.3023 184.671 16.2804 184.68L16.0095 184.224C16.3703 184.05 25.2545 180.252 61.4367 206.338C88.2102 225.641 101.048 255.718 107.945 271.876C110.403 277.634 112.18 281.796 113.474 282.817L113.094 283.205Z" fill="#FEFADA"/>
<path d="M54.7966 202.187C54.3747 202.187 53.8918 201.903 53.5252 201.656C47.4995 197.601 25.0562 199.763 24.8303 199.786L24.7669 199.272C25.6994 199.18 47.6678 197.065 53.8699 201.243C54.5107 201.675 54.8035 201.702 54.8657 201.652C55.9941 200.83 50.3671 190.037 47.6632 184.849C46.0403 181.736 45.1159 179.95 45.0041 179.457L45.5689 179.354C45.6715 179.811 46.8368 182.044 48.1853 184.63C53.7108 195.232 56.4713 201.148 55.2288 202.053C55.0997 202.148 54.9533 202.187 54.7966 202.187Z" fill="#FEFADA"/>
<path d="M50.5596 223.25L50.4282 222.748C51.1982 222.585 69.3792 218.827 76.9102 222.159C77.596 222.462 78.0709 222.515 78.329 222.316C79.5542 221.361 77.3666 215.404 75.0499 209.098C72.4324 201.971 69.4667 193.895 69.3596 188.298L69.9359 188.288C70.0407 193.807 72.9925 201.844 75.5974 208.935C78.5503 216.977 80.1501 221.581 78.7059 222.706C78.2507 223.06 77.5798 223.033 76.6532 222.623C69.31 219.371 50.7463 223.211 50.5596 223.25Z" fill="#FEFADA"/>
<path d="M95.7851 248.458C95.2745 248.458 94.8192 247.95 94.5057 247.545C89.6878 241.296 64.4818 238.148 64.2271 238.118L64.3043 237.605C65.352 237.733 90.0175 240.817 94.9783 247.25C95.5476 247.99 95.7954 247.94 95.8208 247.935C96.8881 247.619 96.6518 240.554 96.4224 233.72C96.117 224.596 95.7367 213.239 97.6062 206.856L98.1629 206.987C96.3141 213.299 96.6933 224.613 96.9976 233.705C97.3111 243.091 97.4102 248.009 95.9994 248.425C95.9291 248.449 95.8565 248.458 95.7851 248.458Z" fill="#FEFADA"/>
<path d="M106.191 272.951C103.324 272.951 97.6234 270.391 91.1816 267.5C84.976 264.713 78.5573 261.833 74.378 261.148L74.4817 260.64C78.7428 261.336 85.1973 264.235 91.4398 267.038C98.2885 270.113 105.37 273.296 107.162 272.242C107.465 272.064 107.599 271.748 107.573 271.276C107.233 265.285 115.429 243.322 115.778 242.389L116.324 242.555C116.239 242.782 107.814 265.356 108.148 271.249C108.186 271.912 107.96 272.391 107.477 272.674C107.154 272.863 106.721 272.951 106.191 272.951Z" fill="#FEFADA"/>
<path d="M394.083 332.105C394.083 332.105 426.613 337.889 446.171 309.336C465.729 280.783 509.226 263.048 518.403 253.044C527.58 243.04 483.523 229.321 452.179 243.406C420.836 257.491 385.253 304.931 394.083 332.105Z" fill="#3E2D4A"/>
<path d="M399.225 330.433L398.927 329.989C400.406 329.193 402.986 325.385 406.554 320.114C416.568 305.326 435.207 277.802 465.404 263.118C506.214 243.272 514.195 248.437 514.515 248.667L514.157 249.073C514.137 249.059 512.137 247.761 505.177 248.902C498.76 249.953 486.698 253.351 465.677 263.572C435.618 278.19 417.031 305.637 407.046 320.381C403.3 325.916 400.826 329.571 399.225 330.433Z" fill="#FEFADA"/>
<path d="M502.727 262.559C502.511 262.502 480.863 256.764 474.124 259.784C473.565 260.036 472.77 260.323 472.368 259.9C471.326 258.809 475.224 253.431 482.782 243.889C484.624 241.563 486.214 239.555 486.407 239.123L486.943 239.315C486.734 239.782 485.47 241.39 483.252 244.19C479.555 248.859 471.86 258.575 472.806 259.565C472.86 259.62 473.147 259.646 473.869 259.323C480.806 256.208 501.994 261.823 502.895 262.064L502.727 262.559Z" fill="#FEFADA"/>
<path d="M472.727 281.505C472.552 281.436 455.062 274.677 447.178 276.691C446.185 276.948 445.519 276.864 445.143 276.444C443.946 275.104 446.441 270.832 450.953 263.396C454.932 256.839 459.441 249.406 460.648 243.993L461.212 244.094C459.988 249.585 455.457 257.054 451.458 263.643C447.919 269.476 444.577 274.984 445.591 276.121C445.803 276.357 446.285 276.381 447.019 276.194C455.092 274.122 472.229 280.747 472.955 281.03L472.727 281.505Z" fill="#FEFADA"/>
<path d="M423.324 299.042C423.209 299.042 423.097 299.02 422.988 298.966C421.683 298.33 422.763 293.507 424.947 284.323C427.063 275.427 429.697 264.357 429.14 257.851L429.714 257.81C430.279 264.391 427.635 275.502 425.512 284.43C423.921 291.117 422.276 298.029 423.264 298.511C423.288 298.524 423.525 298.607 424.23 297.973C430.395 292.441 455.28 293.373 456.334 293.416L456.31 293.933C456.05 293.921 430.626 292.966 424.638 298.339C424.281 298.659 423.79 299.042 423.324 299.042Z" fill="#FEFADA"/>
<path d="M409.197 321.535C408.116 321.535 407.312 321.365 406.854 320.975C406.436 320.619 406.308 320.111 406.479 319.466C407.987 313.721 404.207 290.159 404.169 289.922L404.739 289.848C404.896 290.821 408.572 313.746 407.039 319.586C406.919 320.045 406.987 320.378 407.251 320.6C408.805 321.921 416.407 319.932 423.76 318.009C430.461 316.256 437.39 314.443 441.722 314.443V314.96C437.472 314.96 430.583 316.762 423.921 318.505C417.822 320.102 412.341 321.535 409.197 321.535Z" fill="#FEFADA"/>
<path d="M167.329 219.396C167.329 219.396 162.711 170.323 196.912 165.262C225.946 160.966 249.088 172.591 260.473 198.883C271.859 225.174 174.878 227.336 167.329 219.396Z" fill="#6A8185"/>
<path d="M96.23 138.457C96.23 138.457 106.791 157.032 116.498 155.655C126.205 154.279 130.237 142.282 145.926 147.234C161.615 152.184 175.956 181.734 191.056 185.927C206.156 190.12 181.228 221.223 181.228 221.223C181.228 221.223 59.8507 228.078 54.9107 220.089C49.9707 212.1 87.6962 171.814 91.3753 169.318C99.8641 163.557 87.7019 153.645 87.7019 153.645L96.23 138.457Z" fill="#E7BD9F"/>
<path d="M96.2058 125.736C96.2058 125.736 109.258 149.356 95.2307 154.097C85.5823 157.358 74.9036 143.938 74.8102 136.16C74.7168 128.383 88.2978 122.049 96.2058 125.736Z" fill="#E7BD9F"/>
<path d="M85.4267 142.893C85.8984 142.733 86.0945 142.161 85.8648 141.615C85.6351 141.069 85.0665 140.756 84.5948 140.916C84.1231 141.075 83.927 141.648 84.1567 142.194C84.3864 142.74 84.955 143.053 85.4267 142.893Z" fill="#34263B"/>
<path d="M94.351 139.872C94.8227 139.712 95.0189 139.14 94.7892 138.594C94.5595 138.048 93.9909 137.735 93.5192 137.894C93.0475 138.054 92.8513 138.626 93.081 139.172C93.3107 139.718 93.8793 140.031 94.351 139.872Z" fill="#34263B"/>
<path d="M99.984 137.956C99.984 137.956 99.8226 133.23 102.653 134.361C105.484 135.492 105.289 141.298 103.293 141.943C101.299 142.586 99.7615 139.982 99.984 137.956Z" fill="#E7BD9F"/>
<path d="M91.5954 134.991C91.5954 134.991 93.3704 133.726 95.4877 135.448C96.7221 136.453 89.5634 136.299 91.5954 134.991Z" fill="#A0444E"/>
<path d="M83.9733 137.385C83.9733 137.385 81.7211 137.16 80.9466 139.627C80.4959 141.067 86.4686 137.523 83.9733 137.385Z" fill="#A0444E"/>
<path d="M79.8332 144.966C79.8332 144.966 76.4942 141.307 75.1871 143.829C73.8801 146.35 78.2795 150.613 80.2551 149.922C82.2318 149.232 81.4849 146.363 79.8332 144.966Z" fill="#E7BD9F"/>
<path d="M75.4614 129.939C75.4614 129.939 80.4348 139.259 77.7412 144.061C77.7412 144.061 62.2331 140.303 75.4614 129.939Z" fill="#A0444E"/>
<path d="M91.8202 146.043C91.0571 146.043 89.4839 145.507 88.6886 144.572L89.1461 144.258C89.8423 145.076 91.2024 145.486 91.7291 145.527C91.5631 144.829 90.437 142.363 89.3317 140.154L89.8573 139.942C91.6381 143.504 92.4575 145.488 92.2916 145.841L92.0991 146.008C92.0276 146.032 91.9331 146.043 91.8202 146.043Z" fill="#C87D79"/>
<path d="M91.7879 149.076C89.7582 149.076 87.6397 147.681 87.5302 147.609L87.8737 147.194C87.9048 147.215 90.9165 149.195 92.9163 148.349C94.0274 147.878 94.6486 146.597 94.7616 144.542L95.3367 144.567C95.2122 146.828 94.4803 148.258 93.1606 148.817C92.7261 149.001 92.2593 149.076 91.7879 149.076Z" fill="#C87D79"/>
<path d="M79.7202 148.333C78.3982 145.425 76.894 145.551 76.8802 145.547L76.7984 145.035C76.8733 145.023 78.7405 144.812 80.255 148.137L79.7202 148.333Z" fill="#C87D79"/>
<path d="M102.159 140.721C100.845 137.326 102.402 136.383 102.47 136.344L102.785 136.777C102.772 136.784 101.555 137.583 102.704 140.551L102.159 140.721Z" fill="#C87D79"/>
<path d="M76.841 164.091C76.841 164.091 76.5598 159.816 72.7125 156.828C68.8651 153.84 64.7089 149.373 67.082 150.387C69.4552 151.402 72.4554 153.084 72.4554 153.084C72.4554 153.084 68.1517 149.346 68.8259 148.831C69.5002 148.316 75.3392 150.82 75.3392 150.82C75.3392 150.82 70.1687 148.168 72.2434 147.285C74.3169 146.401 88.269 157.222 85.9557 161.093C83.1227 165.832 83.2575 166.07 76.841 164.091Z" fill="#E7BD9F"/>
<path d="M173.172 217.213C173.172 217.213 177.662 189.475 186.29 185.927C194.918 182.379 279.311 206.209 290.097 207.176C300.883 208.142 307.938 216.898 307.15 218.585C306.361 220.271 293.165 220.87 287.676 221.838C282.186 222.805 172.459 235.597 173.172 217.213Z" fill="#6A8185"/>
<path d="M181.146 186.997C181.146 186.997 176.884 175.311 184.077 169.756C209.479 150.139 278.622 192.362 290.573 202.2C298.561 208.774 315.501 215.762 314.38 217.29C313.258 218.818 297.044 210.893 291.449 210.939C285.856 210.984 176.677 204.95 181.146 186.997Z" fill="#6A8185"/>
<path d="M74.3307 158.386C74.3307 158.386 84.8251 157.673 86.3788 158.32C87.9336 158.967 89.7017 218.456 82.7539 221.838C75.806 225.219 58.1702 225.886 52.0937 222.113C46.0173 218.34 69.7411 156.085 74.3307 158.386Z" fill="#C87D79"/>
<path d="M93.6366 167.016C93.6366 167.016 114.021 180.333 116.498 155.655C116.498 155.655 131.587 144.138 143.061 144.06C161.484 143.936 166.667 168.206 184.077 169.755C191.176 170.387 181.712 224.052 181.712 224.052C181.712 224.052 74.2535 226.147 68.7579 224.742C63.2624 223.337 66.6487 188.511 70.3358 183.743C74.023 178.976 90.444 166.079 93.6366 167.016Z" fill="#C87D79"/>
<path d="M87.702 153.644C87.702 153.644 93.9571 160.811 98.6735 160.167C103.39 159.522 103.837 148.817 103.837 148.817L101.728 146.377C101.728 146.377 101.728 158.801 87.702 153.644Z" fill="#C87D79"/>
<path d="M71.8757 127.009C71.8757 127.009 73.857 122.242 81.4387 119.388C89.0205 116.535 99.3788 112.141 99.962 114.209C100.545 116.277 98.1548 120.971 98.1548 120.971C98.1548 120.971 103.923 117.191 103.428 120.025C102.932 122.859 101.119 129.296 89.8319 132.304C78.5446 135.311 66.8066 135.125 71.8757 127.009Z" fill="#A0444E"/>
<path d="M92.9785 124.522C92.9785 124.522 97.0391 136.899 100.444 136.101C100.444 136.101 102.116 129.82 99.9621 126.358C97.8079 122.896 92.9785 124.522 92.9785 124.522Z" fill="#A0444E"/>
<path d="M82.007 217.509L81.7016 217.07C87.7965 213.666 87.2986 171.737 87.2928 171.314L87.8691 171.308C87.8933 173.047 88.3751 213.952 82.007 217.509Z" fill="#A34D5B"/>
<path d="M106.37 172.902C98.8659 172.902 91.3257 169.583 91.2473 169.548L91.5043 169.085C91.5827 169.12 99.5575 172.625 107.163 172.371C114.306 172.134 117.707 161.12 118.415 156.896L118.984 156.973C118.692 158.718 117.715 162.585 115.912 166.002C113.56 170.456 110.625 172.773 107.184 172.888C106.913 172.897 106.641 172.902 106.37 172.902Z" fill="#A34D5B"/>
<path d="M109.59 182.756C109.59 182.756 110.129 169.207 126.701 161.57C136.363 157.117 138.304 166.266 138.884 167.612C139.464 168.957 113.938 186.125 110.264 185.782C106.589 185.438 73.0075 188.028 72.2975 187.687C71.5887 187.347 69.2051 182.315 72.8139 179.886C76.4227 177.456 102.811 174.606 109.59 182.756Z" fill="#FEFADA"/>
<path d="M81.5206 220.364C81.5206 220.364 67.0567 185.325 70.7127 184.04C75.6838 182.292 104.361 182.406 109.59 182.756C109.59 182.756 130.565 161.727 137.137 163.043C143.71 164.36 157.797 203.225 155.097 203.392C152.398 203.56 135.522 215.664 121.967 220.965C121.967 220.965 85.2308 221.842 81.5206 220.364Z" fill="#6A8185"/>
<path d="M144.741 205.56C144.741 205.56 137.129 201.779 132.047 201.559C126.964 201.339 120.519 201.996 123.017 202.732C125.516 203.469 128.981 204.109 128.981 204.109C128.981 204.109 122.991 204.147 123.082 204.938C123.173 205.728 129.326 207.532 129.326 207.532C129.326 207.532 123.544 206.249 124.365 208.173C125.185 210.098 135.909 210.611 140.07 214.483C144.23 218.353 150.907 208.102 144.741 205.56Z" fill="#E7BD9F"/>
<path d="M140.658 167.571C132.703 159.53 138.554 148.567 138.614 148.458L139.132 148.685C139.073 148.793 133.393 159.449 141.089 167.228L140.658 167.571Z" fill="#A34D5B"/>
<path d="M134.85 197.447C134.85 197.447 130.253 210.754 134.85 215.345C139.446 219.936 178.088 208.304 182.182 198.065C186.276 187.826 180.085 178.751 173.169 178.803C166.253 178.854 155.295 192.103 134.85 197.447Z" fill="#C87D79"/>
<path d="M147.02 218.239C144.818 218.239 142.599 218.021 140.385 217.541L140.519 217.039C153.223 219.793 166.236 213.776 174.178 207.225C179.75 202.628 183.014 197.696 182.491 194.661C181.181 187.053 169.851 166.986 169.737 166.784L170.249 166.55C170.719 167.377 181.736 186.892 183.061 194.581C183.613 197.782 180.278 202.894 174.567 207.605C167.896 213.109 157.68 218.239 147.02 218.239Z" fill="#A34D5B"/>
<path d="M152.229 190.2L151.815 189.84C152.886 188.847 163.047 181.57 167.031 180.214L167.235 180.698C163.313 182.032 153.287 189.218 152.229 190.2Z" fill="#A34D5B"/>
<path d="M76.8929 181.77L76.788 181.262C77.6594 181.118 98.2182 177.765 106.497 181.283L106.251 181.75C98.1352 178.303 77.1038 181.734 76.8929 181.77Z" fill="#FEFADA"/>
<path d="M117.259 183.973C117.259 183.973 137.843 173.148 138.893 171.338C139.262 170.702 143.061 181.517 143.061 181.517C143.061 181.517 123.628 191.219 122.461 191.36C121.293 191.502 117.835 186.01 117.259 183.973Z" fill="#FEFADA"/>
<path d="M142.804 215.461C138.935 208.557 140.114 196.215 140.166 195.693L140.74 195.739C140.727 195.866 139.524 208.457 143.318 215.228L142.804 215.461Z" fill="#A34D5B"/>
<path d="M86.9562 166.532C82.8415 165.111 71.0009 165.516 70.8799 165.52L70.8568 165.003C71.3467 164.985 82.9383 164.591 87.1625 166.049L86.9562 166.532Z" fill="#A34D5B"/>
<path d="M72.7079 153.208L72.2019 152.96C72.2341 152.907 73.0133 151.653 75.2021 150.592L75.4752 151.047C73.449 152.029 72.7159 153.197 72.7079 153.208Z" fill="#C87D79"/>
<path d="M243.665 175.871C231.929 170.846 211.752 168.223 197.469 173.26L197.258 172.78C211.69 167.689 232.068 170.333 243.913 175.406L243.665 175.871Z" fill="#515562"/>
<path d="M287.432 199.815C287.432 199.815 284.445 212.559 287.886 213.547C291.328 214.536 308.163 210.3 312.782 212.408C317.402 214.515 320.692 218.153 320.199 212.973C319.707 207.793 313.711 203.016 307.777 201.527C301.842 200.039 287.432 199.815 287.432 199.815Z" fill="#44324E"/>
<path d="M287.46 212.655C287.46 212.655 286.213 220.235 289.655 221.223C293.096 222.212 305.626 219.116 310.246 221.223C314.865 223.331 323.118 227.149 322.626 221.969C322.134 216.789 316.138 212.012 310.203 210.523C304.268 209.034 287.46 212.655 287.46 212.655Z" fill="#44324E"/>
<path d="M191.601 174.037C191.601 174.037 177.485 209.578 178.253 224.053C178.55 229.658 203.436 227.742 211.647 227.375C219.858 227.008 194.648 180.025 191.601 174.037Z" fill="#6A8185"/>
<path d="M184.228 200.015C182.499 198.732 183.961 192.976 185.25 187.897C185.774 185.836 186.268 183.89 186.417 182.683C186.914 178.65 191.199 174.063 191.382 173.869L191.823 174.203C191.779 174.249 187.467 178.864 186.991 182.739C186.839 183.975 186.364 185.844 185.814 188.01C184.686 192.452 183.141 198.535 184.597 199.615L184.228 200.015Z" fill="#515562"/>
<path d="M75.0442 132.185L74.7595 131.735C75.0522 131.585 81.9678 128.082 85.0833 128.082C91.7395 128.082 95.5546 125.979 96.4225 121.83L96.9884 121.925C96.0629 126.354 92.0576 128.599 85.0833 128.599C82.1176 128.599 75.1145 132.148 75.0442 132.185Z" fill="#863A42"/>
<path d="M73.2288 130.368L72.732 130.105C72.8876 129.868 76.5967 124.313 81.6462 123.094C83.6667 122.605 85.2745 122.75 86.5689 122.868C88.5652 123.047 89.7696 123.158 91.0744 121.062L91.5781 121.314C90.0901 123.706 88.5099 123.562 86.5113 123.382C85.1996 123.263 83.7139 123.129 81.7972 123.592C76.9747 124.757 73.2657 130.312 73.2288 130.368Z" fill="#863A42"/>
<path d="M75.202 141.946C75.1225 141.716 73.2588 136.312 74.2569 134.434L74.7767 134.656C73.8754 136.354 75.7334 141.738 75.7518 141.792L75.202 141.946Z" fill="#863A42"/>
<path d="M99.3996 133.905C98.7599 131.034 97.3053 129.93 97.2903 129.919L97.6546 129.519C97.7203 129.567 99.2797 130.733 99.9644 133.805L99.3996 133.905Z" fill="#863A42"/>
<path d="M297.703 212.343C297.486 211.662 295.859 209.081 295.03 207.812L295.528 207.551C295.627 207.703 297.966 211.288 298.258 212.202L297.703 212.343Z" fill="#FEFADA"/>
<path d="M302.813 212.565L302.243 212.491C302.509 210.819 300.315 207.594 300.293 207.562L300.784 207.291C300.88 207.429 303.11 210.708 302.813 212.565Z" fill="#FEFADA"/>
<path d="M299.124 221.653C298.908 220.972 297.28 218.391 296.451 217.122L296.949 216.86C297.048 217.012 299.387 220.597 299.679 221.511L299.124 221.653Z" fill="#FEFADA"/>
<path d="M304.235 221.873L303.666 221.8C303.932 220.128 301.737 216.903 301.715 216.87L302.206 216.599C302.301 216.739 304.532 220.018 304.235 221.873Z" fill="#FEFADA"/>
<path d="M287.453 212.913C286.933 212.903 235.102 211.829 211.603 208.549C191.363 205.724 186.692 201.864 186.503 201.7L186.902 201.327C186.948 201.366 191.702 205.248 211.692 208.038C235.153 211.313 286.946 212.386 287.467 212.396L287.453 212.913Z" fill="#515562"/>
<path d="M108.902 182.85C98.0453 179.208 75.1686 181.633 74.9393 181.657L74.8701 181.145C75.1018 181.12 98.1191 178.682 109.103 182.365L108.902 182.85Z" fill="#D3D0B1"/>
<path d="M112.057 178.906L111.517 178.726C115.257 169.692 128.516 163.144 128.65 163.079L128.926 163.532C128.794 163.598 115.723 170.055 112.057 178.906Z" fill="#D3D0B1"/>
<path d="M121.955 221.223C121.619 221.223 121.155 220.91 114.012 202.956C110.452 194.005 106.941 184.937 106.905 184.847L107.45 184.678C112.888 198.727 121.286 219.931 122.13 220.761L121.965 220.896L121.972 221.223C121.966 221.223 121.96 221.223 121.955 221.223Z" fill="#515562"/>
<path d="M127.94 219.486C126.232 215.144 112.805 182.081 112.669 181.747L113.211 181.571C113.347 181.904 126.775 214.969 128.484 219.314L127.94 219.486Z" fill="#515562"/>
<path d="M45.2588 287.294C45.2588 287.294 243.038 289.027 251.354 287.294C259.67 285.561 279.341 284.55 281.714 288.087C284.089 291.624 292.336 349.119 280.457 352.586C268.578 356.053 41.6962 353.742 36.944 353.742C32.1919 353.742 35.1621 294.806 37.5376 291.917C39.9143 289.027 37.5388 288.449 45.2588 287.294Z" fill="#68818D"/>
<path d="M96.7994 303.356C96.7994 303.356 96.3268 331.065 99.6359 335.154C102.945 339.242 241.936 338.787 246.664 337.879C251.392 336.97 248.555 302.448 248.555 302.448C248.555 302.448 96.3256 298.814 96.7994 303.356Z" fill="#493558"/>
<path d="M53.5817 287.16L52.4291 354.856C52.4291 354.856 62.2261 355.389 63.955 355.389C65.6839 355.389 65.1076 286.095 65.1076 286.095L53.5817 287.16Z" fill="#493558"/>
<path d="M74.9047 287.128L73.7521 352.787C73.7521 352.787 83.5491 353.304 85.278 353.304C87.0069 353.304 86.4306 286.094 86.4306 286.094L74.9047 287.128Z" fill="#493558"/>
<path d="M45.2589 223.138C45.2589 223.138 242.831 223.209 251.354 223.138C265.659 223.019 280.573 224.759 282.948 228.19C285.322 231.62 292.336 283.104 280.457 286.467C268.578 289.829 41.6962 287.588 36.9441 287.588C32.1919 287.588 35.1621 230.424 37.5376 227.622C39.9143 224.82 37.5388 224.259 45.2589 223.138Z" fill="#493558"/>
<path d="M35.7165 234.911C35.7165 234.911 245.488 235.428 247.794 239.047C250.099 242.666 252.98 275.754 242.607 278.856C232.234 281.958 38.598 282.992 33.4113 279.89C28.2247 276.788 28.2247 235.945 35.7165 234.911Z" fill="#FEFADA"/>
<path d="M176.491 246.57C164.523 246.57 152.997 246.199 143.376 245.888C135.186 245.625 128.717 245.418 124.473 245.509C101.113 246.02 36.3712 246.538 35.72 246.543L35.7142 246.026C36.3654 246.021 101.104 245.503 124.46 244.992C128.719 244.899 135.198 245.107 143.397 245.371C155.267 245.754 170.037 246.232 184.952 245.987C216.385 245.472 247.213 244.992 247.213 244.992L247.223 245.509C247.223 245.509 216.396 245.989 184.962 246.504C182.127 246.55 179.296 246.57 176.491 246.57Z" fill="#D3D0B1"/>
<path d="M111.418 257.236C82.6755 257.236 33.4898 256.377 32.8293 256.366L32.8408 255.849C33.7226 255.866 121.106 257.388 130.772 256.368C135.468 255.873 160.345 255.04 186.682 254.158C214.665 253.222 243.599 252.253 246.585 251.718L246.697 252.225C243.667 252.768 214.71 253.738 186.704 254.674C160.379 255.556 135.513 256.388 130.84 256.881C128.402 257.138 121.058 257.236 111.418 257.236Z" fill="#D3D0B1"/>
<path d="M89.2786 265.094C61.9876 265.094 32.6944 264.644 32.2541 264.638L32.2645 264.121C32.9261 264.132 98.8336 265.143 125.031 264.121C147.694 263.238 245.996 259.951 247.886 260.515L247.704 261.007C245.637 260.533 154.674 263.484 125.056 264.639C116.272 264.98 103.028 265.094 89.2786 265.094Z" fill="#D3D0B1"/>
<path d="M89.0136 273.76C62.4429 273.76 36.1741 273.433 35.7131 273.427L35.7211 272.91C36.5337 272.921 117.216 273.926 138.852 272.394C147.067 271.812 163.228 271.592 180.337 271.358C209.057 270.965 241.609 270.52 247.684 268.277L247.903 268.755C241.726 271.036 209.117 271.482 180.345 271.875C163.245 272.11 147.093 272.329 138.895 272.91C129.546 273.572 109.192 273.76 89.0136 273.76Z" fill="#D3D0B1"/>
<path d="M201.114 271.101C201.114 271.101 180.367 246.802 182.672 245.768C184.977 244.734 221.86 241.632 221.284 244.734C220.708 247.836 203.419 271.101 201.114 271.101Z" fill="#6A8185"/>
<path d="M169.994 288.678C169.994 288.678 149.247 264.379 151.552 263.345C153.857 262.311 190.74 259.209 190.164 262.311C189.588 265.413 172.299 288.678 169.994 288.678Z" fill="#CA9661"/>
<path d="M92.1936 234.393C92.1936 234.393 99.1091 297.467 99.1091 301.086C99.1091 304.705 107.177 284.542 107.177 284.542C107.177 284.542 114.116 301.176 116.254 300.395C118.391 299.613 122.161 236.978 118.703 234.91C115.245 232.842 92.1936 234.393 92.1936 234.393Z" fill="#B94D59"/>
<path d="M487.331 145.435C487.331 145.435 514.153 324.667 517.078 332.307C520.004 339.948 521.333 369.743 501.305 370.306C496.633 370.437 457.481 385.077 451.935 357.939C449.564 346.338 416.849 149.391 416.275 144.912C415.701 140.433 475.284 134.171 478.771 136.08C482.257 137.989 485.117 138.288 487.331 145.435Z" fill="#CA9661"/>
<path d="M444.64 320.068C444.64 320.068 506.916 309.03 511.485 310.783C516.054 312.537 518.331 337.616 519.573 347.591C520.814 357.566 513.7 370.417 494.949 372.786C476.197 375.154 453.109 378.017 450.183 354.591C447.994 337.078 444.64 320.068 444.64 320.068Z" fill="#C37E59"/>
<path d="M427.419 143.715C427.419 143.715 460.484 356.219 465.682 359.882C470.88 363.544 504.614 358.286 505.214 353.905C506.435 344.985 473.72 140.775 470.056 137.176C466.392 133.576 424.698 136.703 427.419 143.715Z" fill="#FEFADA"/>
<path d="M475.115 362.133C469.443 355.619 433.482 148.729 431.953 139.925L432.522 139.846C432.897 142 469.987 355.407 475.568 361.814L475.115 362.133Z" fill="#D3D0B1"/>
<path d="M489.4 356.29C489.114 354.321 460.802 159.181 455.989 136.737L456.555 136.639C461.372 159.1 489.686 354.254 489.972 356.222L489.4 356.29Z" fill="#D3D0B1"/>
<path d="M498.853 359.332L498.277 359.308C498.862 347.78 470.063 139.311 469.773 137.206L470.343 137.142C470.634 139.248 499.439 347.761 498.853 359.332Z" fill="#D3D0B1"/>
<path d="M485.475 358.878C485.055 356.849 443.371 155.775 444.365 136.202L444.94 136.226C443.95 155.74 485.621 356.755 486.041 358.784L485.475 358.878Z" fill="#D3D0B1"/>
<path d="M423.875 152.156C423.875 152.156 425.1 332.992 426.92 340.905C428.74 348.817 425.839 378.523 405.895 376.798C401.242 376.396 360.334 386.456 358.675 358.906C357.967 347.128 353.405 148.049 353.469 143.54C353.534 139.031 413.521 139.61 416.71 141.901C419.898 144.194 422.693 144.815 423.875 152.156Z" fill="#6E6C7B"/>
<path d="M356.803 320.508C356.803 320.508 420.137 316.656 424.42 318.917C428.703 321.177 425.821 345.089 425.64 355.125C425.459 365.161 418.173 378.321 399.238 378.533C380.304 378.745 357.259 378.843 359.468 355.354C361.141 337.57 356.803 320.508 356.803 320.508Z" fill="#57495B"/>
<path d="M364.694 143.622C364.694 143.622 367.399 358.173 372.037 362.398C376.675 366.622 410.88 365.251 412.096 360.975C414.57 352.265 411.036 145.982 407.913 141.994C404.787 138.006 362.987 136.357 364.694 143.622Z" fill="#FEFADA"/>
<path d="M381.075 365.706C376.371 358.599 369.997 149.286 369.728 140.38L370.304 140.366C370.37 142.545 376.943 358.451 381.569 365.442L381.075 365.706Z" fill="#D3D0B1"/>
<path d="M396.071 361.538C396.067 359.553 395.616 162.768 394.02 139.956L394.595 139.924C396.193 162.751 396.643 359.551 396.648 361.536L396.071 361.538Z" fill="#D3D0B1"/>
<path d="M405.015 365.633L404.448 365.544C406.66 354.177 407.614 144.114 407.624 141.993L408.2 141.995C408.191 144.116 407.236 354.223 405.015 365.633Z" fill="#D3D0B1"/>
<path d="M391.81 363.659C391.681 361.598 378.808 157.404 382.565 138.101L383.132 138.19C379.387 157.435 392.256 361.57 392.386 363.629L391.81 363.659Z" fill="#D3D0B1"/>
<path d="M355.219 147.604C355.219 147.604 356.974 335.301 359.18 343.161C361.386 351.021 362.958 369.67 358.827 371.983C354.697 374.296 286.96 383.108 282.638 371.895C278.315 360.682 276.683 145.361 276.592 140.853C276.501 136.344 346.155 138.151 349.611 140.356C353.069 142.562 353.705 140.297 355.219 147.604Z" fill="#493558"/>
<path d="M276.445 154.775C276.445 154.775 346.461 154.775 352.16 154.775C352.16 154.775 352.973 163.87 352.16 163.87C351.346 163.87 280.108 164.627 277.665 164.122C275.224 163.617 276.445 154.775 276.445 154.775Z" fill="#B94D59"/>
<path d="M276.445 170.997C276.445 170.997 346.461 170.997 352.16 170.997C352.16 170.997 352.973 180.091 352.16 180.091C351.346 180.091 280.108 180.849 277.665 180.343C275.224 179.839 276.445 170.997 276.445 170.997Z" fill="#B94D59"/>
<path d="M298.443 197.934C298.443 197.934 333.851 197.934 336.732 197.934C336.732 197.934 337.917 323.318 337.506 323.318C337.094 323.318 300.297 327.218 299.061 320.588C297.827 313.958 298.443 197.934 298.443 197.934Z" fill="#B94D59"/>
<path d="M256.183 79.0598C256.183 79.0598 261.887 89.1671 276.163 97.6976C290.439 106.228 307.152 88.3782 307.152 88.3782C307.152 88.3782 262.269 75.1564 256.183 79.0598Z" fill="#E7BD9F"/>
<path d="M354.353 28.7764C354.353 28.7764 350.786 40.8152 352.205 44.9099C353.623 49.0045 370.43 50.114 375.932 56.1391C381.432 62.1642 365.878 116.816 365.78 120.612C365.682 124.408 306.322 117.516 298.987 114.338C291.653 111.159 311.595 55.9458 318.673 51.0105C325.75 46.0762 332.69 50.6837 336.128 44.9088C339.566 39.134 338.091 32.8286 338.091 32.8286L354.353 28.7764Z" fill="#E7BD9F"/>
<path d="M363.334 16.2226C363.334 16.2226 356.831 41.933 342.617 37.6636C332.84 34.7271 334.004 18.272 339.406 12.1879C344.807 6.10388 359.797 8.88534 363.334 16.2226Z" fill="#E7BD9F"/>
<path d="M344.117 22.6923C344.323 22.1388 344.103 21.5739 343.625 21.4305C343.146 21.2872 342.592 21.6197 342.386 22.1732C342.179 22.7267 342.4 23.2917 342.878 23.435C343.356 23.5783 343.911 23.2458 344.117 22.6923Z" fill="#34263B"/>
<path d="M353.164 25.4041C353.37 24.8506 353.15 24.2857 352.672 24.1424C352.193 23.9991 351.639 24.3316 351.432 24.8851C351.226 25.4386 351.447 26.0035 351.925 26.1468C352.403 26.2902 352.958 25.9577 353.164 25.4041Z" fill="#34263B"/>
<path d="M357.663 27.8396C357.663 27.8396 360.865 24.0831 362.264 26.5636C363.664 29.0442 359.426 33.4356 357.425 32.8049C355.424 32.1751 356.065 29.2851 357.663 27.8396Z" fill="#E7BD9F"/>
<path d="M353.244 20.7887C353.244 20.7887 355.51 20.8135 355.94 23.3479C356.191 24.8275 350.749 20.6522 353.244 20.7887Z" fill="#34263B"/>
<path d="M345.65 18.3278C345.65 18.3278 344.062 16.8771 341.725 18.3526C340.361 19.2129 347.487 19.8488 345.65 18.3278Z" fill="#34263B"/>
<path d="M337.103 21.862C337.103 21.862 337.09 17.1335 334.301 18.3485C331.513 19.5634 331.925 25.36 333.943 25.9443C335.961 26.5285 337.401 23.8804 337.103 21.862Z" fill="#E7BD9F"/>
<path d="M344.29 7.73242C344.29 7.73242 341.587 17.7767 336.118 19.975C336.118 19.975 326.737 8.27631 344.29 7.73242Z" fill="#323044"/>
<path d="M361.005 12.7432C361.005 12.7432 356.434 22.2281 359.331 26.9338C359.331 26.9338 374.666 22.6448 361.005 12.7432Z" fill="#323044"/>
<path d="M364.502 14.8019C364.502 14.8019 368.306 7.73552 362.784 3.67087C357.262 -0.393788 345.128 5.39971 344.448 0.934902C344.018 -1.88792 340.407 5.38524 345.618 7.01482C345.618 7.01482 340.397 2.92225 340.174 3.82286C338.005 12.5426 358.674 21.5601 364.502 14.8019Z" fill="#323044"/>
<path d="M350.063 11.9977C349.835 11.9294 349.602 11.857 349.366 11.7805C345.243 10.4394 343.811 8.96288 343.337 7.96093C342.892 7.02102 343.203 6.37167 343.216 6.34375L343.574 6.48748L343.395 6.41613L343.575 6.48644C343.565 6.50816 343.319 7.04067 343.705 7.84098C344.157 8.77365 345.528 10.1582 349.501 11.4507C352.719 12.4992 355.215 12.7297 357.04 12.8983C359.4 13.1175 360.824 13.2498 361.104 15.0325L360.717 15.0811C360.478 13.5714 359.388 13.469 357.001 13.2478C355.288 13.0885 352.988 12.8755 350.063 11.9977Z" fill="#493558"/>
<path d="M362.891 13.3656C362.891 13.3357 362.853 10.4312 357.621 8.237C355.425 7.31881 353.696 7.64659 352.304 7.91129C351.263 8.10775 350.363 8.27733 349.619 7.83788C348.887 7.40463 348.39 6.43164 348.003 4.68521L348.387 4.61594C348.747 6.24138 349.207 7.17095 349.835 7.54319C350.44 7.90302 351.228 7.75516 352.223 7.56594C353.671 7.29193 355.477 6.95071 357.785 7.9175C363.267 10.215 363.284 13.2405 363.283 13.3677L362.891 13.3656Z" fill="#493558"/>
<path d="M345.883 29.6181C345.317 29.4423 344.202 27.9202 344.248 26.5719L344.825 26.5884C344.789 27.6173 345.554 28.705 345.933 29.0359C346.295 28.401 347.159 25.8502 347.858 23.5113L348.414 23.6446C347.288 27.4156 346.526 29.4185 346.15 29.5974L345.883 29.6181Z" fill="#C87D79"/>
<path d="M345.403 32.4698C345.175 32.4698 344.95 32.446 344.729 32.3964C342.25 31.8463 341.253 28.4155 341.212 28.2707L341.77 28.1436C341.779 28.1767 342.722 31.4203 344.868 31.8949C346.064 32.1596 347.444 31.5175 348.979 29.9882L349.406 30.3336C347.983 31.7533 346.639 32.4698 345.403 32.4698Z" fill="#C87D79"/>
<path d="M335.197 24.5587L334.645 24.4077C335.666 21.4019 334.417 20.646 334.403 20.6388L334.7 20.1952C334.769 20.2314 336.366 21.1207 335.197 24.5587Z" fill="#C87D79"/>
<path d="M357.946 31.3924L357.403 31.2156C358.773 27.8354 360.645 27.9905 360.725 27.9967L360.659 28.5106L360.691 28.2532L360.664 28.5106C360.668 28.5199 359.148 28.4279 357.946 31.3924Z" fill="#C87D79"/>
<path d="M378.575 202.82C378.575 202.82 372.647 217.792 375.63 223.576C378.613 229.36 385.912 232.268 389.946 231.675C393.98 231.083 384.85 222.738 383.991 217.285C383.132 211.832 386.68 202.819 386.68 202.819L378.575 202.82Z" fill="#44324E"/>
<path d="M363.234 203.986C363.234 203.986 357.306 218.957 360.289 224.741C363.272 230.525 370.571 233.433 374.605 232.84C378.639 232.248 369.508 223.904 368.65 218.45C367.791 212.997 371.339 203.985 371.339 203.985L363.234 203.986Z" fill="#44324E"/>
<path d="M325.353 135.337C325.353 135.337 333.462 115.457 355.681 120.156C377.899 124.856 384.965 205.298 373.56 212.334C369.09 215.092 353.541 212.997 353.255 209.369C350.182 170.297 323.823 151.793 325.353 135.337Z" fill="#CA9661"/>
<path d="M345.773 121.074C345.773 121.074 382.006 116.429 398.207 130.856C414.408 145.283 403.031 207.482 389.179 212.964C383.953 215.032 374.791 211.782 374.791 211.782C371.369 207.616 334.879 134.384 345.773 121.074Z" fill="#CA9661"/>
<path d="M375.062 211.87L374.519 211.693C377.112 205.306 384.189 162.948 378.574 139.273C375.63 126.866 371.177 122.524 367.959 121.066C364.975 119.714 362.634 120.637 362.61 120.647L362.37 120.177C362.475 120.133 364.966 119.14 368.199 120.596C371.537 122.099 376.143 126.54 379.136 139.165C384.773 162.929 377.664 205.456 375.062 211.87Z" fill="#A36E4C"/>
<path d="M341.491 139.453C341.491 139.453 303.785 140.964 297.501 136.418C286.698 128.602 298.987 114.339 298.987 114.339L355.682 120.156C355.682 120.156 355.015 139.27 341.491 139.453Z" fill="#CA9661"/>
<path d="M332.313 47.1785C332.313 47.1785 332.434 56.3366 344.21 57.2993C354.491 58.1399 353.553 46.6698 360.692 49.2392C367.831 51.8087 372.916 50.0799 377.109 59.9298C381.302 69.7797 375.125 123.057 371.723 122.75C368.321 122.444 333.148 118.653 320.641 126.017C310.225 132.149 290.722 137.379 292.356 129.552C293.991 121.725 298.154 63.4081 304.123 55.0389C307.93 49.7025 329.335 47.4256 332.313 47.1785Z" fill="#B94D59"/>
<path d="M245.192 70.7268C245.192 70.7268 311.095 62.9832 313.649 68.7891C316.203 74.595 316.488 87.2481 313.649 88.1787C310.81 89.1093 248.255 92.9175 246.097 90.0461C243.94 87.1736 245.192 70.7268 245.192 70.7268Z" fill="#CA9661"/>
<path d="M243.391 53.338L313.678 53.2563C315.678 59.3238 316.326 70.4259 313.308 70.5841C293.626 71.6171 270.306 72.6666 256.183 72.6428C248.385 72.6304 243.391 72.2902 243.364 71.4403C243.256 67.9247 243.391 53.338 243.391 53.338Z" fill="#C87D79"/>
<path d="M241.809 34.6195C241.809 34.6195 312.198 29.5043 314.206 35.4809C316.214 41.4574 315.446 52.3475 312.531 53.063C309.616 53.7785 262.01 53.2357 243.365 53.6265C239.505 53.7082 241.809 34.6195 241.809 34.6195Z" fill="#493558"/>
<path d="M236.819 73.5186C236.819 73.5186 236.776 67.9133 237.331 66.6301C239.176 62.3752 242.953 58.1895 242.638 60.5316C242.322 62.8736 241.502 65.9601 241.502 65.9601C241.502 65.9601 244.079 61.1085 244.837 61.518C245.597 61.9275 244.812 67.6899 244.812 67.6899C244.812 67.6899 245.966 62.4486 247.561 63.9303C249.156 65.412 245.138 69.1355 244.833 76.4727C244.607 81.8475 238.058 80.2448 236.819 73.5186Z" fill="#E7BD9F"/>
<path d="M327.677 140.912C326.828 140.912 326.166 140.796 325.753 140.518C325.454 140.317 325.292 140.043 325.267 139.703C325.056 136.751 337.533 133.246 338.956 132.856L339.124 133.351C335.377 134.378 325.688 137.514 325.841 139.67C325.855 139.857 325.937 139.994 326.1 140.104C327.203 140.845 331.252 140.037 335.165 139.255C338.251 138.639 341.439 138.001 343.658 138.001C343.689 138.001 343.722 138.001 343.753 138.001L343.748 138.518C343.718 138.518 343.687 138.518 343.657 138.518C341.503 138.518 338.346 139.149 335.29 139.76C332.267 140.363 329.525 140.911 327.677 140.912Z" fill="#A36E4C"/>
<path d="M356.46 211.125L355.888 211.059C356.523 206.693 357.081 193.813 348.598 168.587C343.373 153.05 336.859 139.853 332.758 136.493C332.008 135.879 331.371 135.619 330.872 135.72C323.84 137.133 304.868 133.509 304.062 133.354L304.183 132.848C304.378 132.887 323.835 136.605 330.746 135.215C331.441 135.077 332.25 135.377 333.145 136.112C337.315 139.527 343.897 152.819 349.149 168.437C351.987 176.873 358.378 197.919 356.46 211.125Z" fill="#A36E4C"/>
<path d="M366.671 64.7296C366.671 64.7296 378.901 73.5889 382.454 81.985C386.007 90.3811 363.567 111.766 353.96 112.821C344.353 113.876 292.618 88.738 292.261 86.5863C291.903 84.4345 292.333 77.3382 295.542 77.6556C300.231 78.1199 334.238 88.7318 346.336 90.3366C352.577 91.1648 358.956 62.6957 366.671 64.7296Z" fill="#E7BD9F"/>
<path d="M348.135 80.2551C348.135 80.2551 375.539 85.4644 380.955 91.7635C383.646 94.8934 388.217 80.8621 387.834 69.4612C387.45 58.0603 364.43 48.2177 360.692 49.2392C356.954 50.2608 348.135 80.2551 348.135 80.2551Z" fill="#B94D59"/>
<path d="M355.358 75.8854L354.786 75.8182C354.861 75.3116 356.662 63.3647 360.483 59.7519C364.302 56.1412 371.367 54.8394 371.666 54.7856L371.779 55.2923C371.708 55.3047 364.594 56.6168 360.901 60.1066C357.208 63.5994 355.377 75.7634 355.358 75.8854Z" fill="#9B434C"/>
<path d="M297.72 127.106L297.18 126.928C297.323 126.575 300.968 118.267 324.353 117.166C336.573 116.589 346.573 117.113 354.607 117.533C361.916 117.915 367.196 118.191 370.471 117.423L370.617 117.923C367.254 118.712 361.935 118.433 354.573 118.049C346.555 117.63 336.575 117.109 324.383 117.682C301.436 118.762 297.756 127.023 297.72 127.106Z" fill="#9B434C"/>
<path d="M345.26 63.1662C338.711 63.1662 328.67 51.0622 328.243 50.5452L328.707 50.2381C328.809 50.3632 339 62.6492 345.257 62.6492C345.283 62.6492 345.31 62.6492 345.335 62.6492C349.459 62.5809 354.083 57.1018 357.142 53.4756C359.167 51.0777 360.102 50.021 360.745 50.1378L360.637 50.6455C360.244 50.6569 358.84 52.3195 357.602 53.7868C354.474 57.4926 349.75 63.0928 345.346 63.1652C345.318 63.1662 345.289 63.1662 345.26 63.1662Z" fill="#9B434C"/>
<path d="M382.67 87.5717C382.497 87.4652 365.065 76.9659 353.315 79.1187L353.199 78.6121C365.194 76.4262 382.818 87.0361 382.994 87.1436L382.67 87.5717Z" fill="#9B434C"/>
<path d="M338.36 34.8977C338.36 34.8977 341.547 38.6573 345.342 38.5963C349.138 38.5353 352.715 35.4633 352.715 35.4633C352.715 35.4633 352.26 37.7081 352.242 38.6201C352.223 39.532 347.21 43.0714 341.724 43.0621C339.444 43.058 338.118 39.319 338.226 38.7979C338.336 38.2768 338.78 36.1922 338.36 34.8977Z" fill="#C87D79"/>
<path d="M239.894 38.9799C239.894 38.9799 302.905 36.7878 305.334 38.9799C307.765 41.172 307.765 48.3717 305.334 49.1658C302.904 49.9599 240.641 50.297 239.894 50.387C239.147 50.478 238.449 39.0285 239.894 38.9799Z" fill="#FEFADA"/>
<path d="M251.061 57.5536C251.061 57.5536 312.418 55.589 314.785 57.5536C317.151 59.5182 317.152 65.9735 314.785 66.6849C312.417 67.3973 251.79 67.6992 251.061 67.7799C250.333 67.8605 249.655 57.5971 251.061 57.5536Z" fill="#FEFADA"/>
<path d="M254.987 91.0987L254.265 72.65C254.265 72.65 250.878 72.0586 250.116 72.65C249.354 73.2415 249.361 90.8288 250.116 90.8857C250.871 90.9425 252.88 91.0997 254.987 91.0987Z" fill="#493558"/>
<path d="M263.546 91.0987L262.825 72.65C262.825 72.65 259.437 72.0586 258.675 72.65C257.913 73.2415 257.92 90.8288 258.675 90.8857C259.43 90.9425 261.44 91.0997 263.546 91.0987Z" fill="#493558"/>
<path d="M300.97 89.0307L300.511 70.5748C300.511 70.5748 297.131 69.9441 296.363 70.5272C295.594 71.1104 295.35 88.6957 296.103 88.7618C296.857 88.828 298.864 89.0069 300.97 89.0307Z" fill="#493558"/>
<path d="M309.53 89.1289L309.071 70.673C309.071 70.673 305.692 70.0423 304.923 70.6255C304.154 71.2087 303.91 88.7939 304.664 88.8601C305.417 88.9262 307.423 89.1051 309.53 89.1289Z" fill="#493558"/>
<path d="M311.546 81.743C311.546 81.743 296.434 77.2162 291.42 76.4376C286.407 75.659 279.92 75.6 282.299 76.6061C284.678 77.6122 288.028 78.6297 288.028 78.6297C288.028 78.6297 282.079 78.0072 282.061 78.8023C282.044 79.5964 287.902 82.0646 287.902 82.0646C287.902 82.0646 281.117 79.7278 281.668 81.7275C282.219 83.7273 295.021 88.4237 299.483 91.0987C304.467 94.0869 317.316 84.9453 311.546 81.743Z" fill="#E7BD9F"/>
<path d="M367.48 221.611C365.179 221.611 362.586 221.031 362.42 220.994L362.562 220.493C364.21 220.868 368.782 221.606 370.131 220.549L370.509 220.939C369.864 221.444 368.713 221.611 367.48 221.611Z" fill="#FEFADA"/>
<path d="M368.568 224.329C366.878 224.329 365.237 223.853 365.134 223.822L365.314 223.331C365.352 223.342 368.966 224.387 370.759 223.358L371.07 223.794C370.368 224.196 369.462 224.329 368.568 224.329Z" fill="#FEFADA"/>
<path d="M383.658 220.561C381.357 220.561 378.764 219.981 378.598 219.943L378.74 219.443C380.388 219.817 384.961 220.555 386.309 219.499L386.687 219.889C386.041 220.394 384.891 220.561 383.658 220.561Z" fill="#FEFADA"/>
<path d="M384.746 223.278C383.056 223.278 381.415 222.802 381.312 222.771L381.492 222.28C381.529 222.292 385.142 223.339 386.937 222.307L387.248 222.743C386.546 223.146 385.64 223.278 384.746 223.278Z" fill="#FEFADA"/>
<path d="M393.8 208.262C393.297 208.245 381.438 207.804 377.489 205.641L377.789 205.2C381.612 207.293 393.703 207.741 393.824 207.744L393.8 208.262Z" fill="#A36E4C"/>
<path d="M368.317 205.485C362.621 205.485 354.995 205.344 352.802 205.301L352.816 204.784C361.156 204.947 373.858 205.089 374.663 204.811L374.928 205.269C374.601 205.432 371.823 205.485 368.317 205.485Z" fill="#A36E4C"/>
<path d="M238.97 42.4996L238.944 41.9837C239.112 41.9764 255.752 41.294 263.354 41.294C268.771 41.294 287.183 41.1234 298.185 41.021C302.75 40.9786 305.988 40.9486 306.383 40.9486V41.4656C305.987 41.4656 302.753 41.4956 298.191 41.538C287.188 41.6404 268.774 41.811 263.354 41.811C255.765 41.811 239.138 42.4934 238.97 42.4996Z" fill="#D3D0B1"/>
<path d="M262.446 47.7875C252.999 47.7875 239.894 47.5021 239.719 47.498L239.733 46.981C239.967 46.9862 263.235 47.4939 270.062 47.1537C276.894 46.8135 305.685 44.5914 305.975 44.5687L306.025 45.0836C305.734 45.1063 276.935 47.3284 270.093 47.6686C268.373 47.7555 265.615 47.7875 262.446 47.7875Z" fill="#D3D0B1"/>
<path d="M267.298 62.1053C259.379 62.1053 250.226 61.8054 250.088 61.8013L250.11 61.2843C250.318 61.2915 270.905 61.9657 276.956 61.2864C283.05 60.6029 315.657 60.2534 315.986 60.2503L315.992 60.7673C315.664 60.7704 283.089 61.1189 277.028 61.7992C274.981 62.0298 271.296 62.1053 267.298 62.1053Z" fill="#D3D0B1"/>
<path d="M251.061 65.593L251.058 65.076C251.376 65.0749 282.975 64.894 287.888 64.0461C292.854 63.19 315.236 63.5115 316.185 63.525L316.176 64.042C315.943 64.0389 292.906 63.707 287.996 64.5548C283.033 65.411 252.365 65.5857 251.061 65.593Z" fill="#D3D0B1"/>
<path d="M291.592 41.0355C291.592 41.0355 291.976 57.4068 292.168 58.7862C292.361 60.1645 296.01 52.7548 296.01 52.7548L300.236 59.1315L301.005 40.6922C301.005 40.6922 292.168 40.3458 291.592 41.0355Z" fill="#B94D59"/>
<path d="M266.587 215.715C266.587 215.715 253.388 210.688 248.004 227.403C242.621 244.117 242.848 250.988 251.334 253.38C259.821 255.771 261.416 249.537 268.048 251.877C274.68 254.217 286.38 255.257 288.279 248.065C290.179 240.874 284.455 207.885 266.587 215.715Z" fill="#B94D59"/>
<path d="M275.686 225.797C275.686 225.797 272.706 251.083 277.483 254.857C282.261 258.631 301.597 252.899 306.738 260.171C311.88 267.442 310.344 321.437 310.344 321.437H228.8C228.8 321.437 230.177 259.236 234.411 256.517C238.644 253.798 258.494 260.342 259.53 249.674C260.026 244.567 260.563 230.123 260.563 230.123L275.686 225.797Z" fill="#E7BD9F"/>
<path d="M259.966 244.783C259.966 244.783 268.559 250.892 274.776 241.49C274.776 241.49 274.635 247.178 274.839 248.083C275.043 248.987 268.735 253.895 267.754 253.895C265.147 253.895 259.753 248.339 259.753 248.339L259.966 244.783Z" fill="#C87D79"/>
<path d="M252.589 255.931C252.589 255.931 257.518 270.896 266.4 272.059C275.282 273.222 277.46 255.412 280 255.931C282.54 256.45 296.312 250.296 302.478 259.081C308.645 267.865 308.106 336.647 308.106 336.647H228.8C228.8 336.647 230.327 271.877 232.37 264.335C234.411 256.792 247.955 254.925 252.589 255.931Z" fill="#7F6873"/>
<path d="M278.999 223.274C278.999 223.274 280.31 249.611 265.345 248.868C255.05 248.358 251.319 232.213 254.734 225.063C258.148 217.914 273.424 217.038 278.999 223.274Z" fill="#E7BD9F"/>
<path d="M261.839 236.125C261.875 235.543 261.496 235.05 260.992 235.025C260.489 235.001 260.052 235.453 260.016 236.036C259.981 236.618 260.36 237.111 260.863 237.136C261.367 237.16 261.804 236.708 261.839 236.125Z" fill="#44324E"/>
<path d="M271.897 236.125C271.932 235.542 271.553 235.05 271.05 235.025C270.546 235 270.109 235.453 270.074 236.036C270.038 236.618 270.418 237.111 270.921 237.135C271.424 237.16 271.861 236.708 271.897 236.125Z" fill="#44324E"/>
<path d="M276.958 235.824C276.958 235.824 278.937 231.44 281.018 233.501C283.1 235.562 280.308 240.802 278.192 240.669C276.076 240.535 275.842 237.597 276.958 235.824Z" fill="#E7BD9F"/>
<path d="M270.616 230.072C270.616 230.072 272.809 229.559 273.971 231.901C274.649 233.267 268.169 230.533 270.616 230.072Z" fill="#B94D59"/>
<path d="M262.287 230.36C262.287 230.36 260.328 229.338 258.509 231.315C257.448 232.47 264.507 231.392 262.287 230.36Z" fill="#B94D59"/>
<path d="M255.367 234.938C255.367 234.938 253.959 230.382 251.628 232.215C249.298 234.048 251.405 239.541 253.523 239.626C255.643 239.71 256.249 236.815 255.367 234.938Z" fill="#E7BD9F"/>
<path d="M266.66 240.641L266.545 240.637C265.999 240.617 264.549 240.569 264.186 239.222L264.746 239.101C264.967 239.927 265.745 240.085 266.498 240.118C266.6 239.417 266.393 236.39 266.113 233.639L266.687 233.592C267.131 237.941 267.208 240.283 266.915 240.551L266.66 240.641Z" fill="#C87D79"/>
<path d="M265.757 243.288C263.237 243.288 261.302 240.274 261.219 240.144L261.721 239.889C261.74 239.917 263.573 242.771 265.757 242.771C265.776 242.771 265.795 242.771 265.815 242.77C267.044 242.742 268.19 241.795 269.217 239.954L269.732 240.187C268.601 242.211 267.287 243.254 265.828 243.287C265.805 243.288 265.78 243.288 265.757 243.288Z" fill="#C87D79"/>
<path d="M254.324 237.992L253.748 237.977C253.846 234.836 252.418 234.404 252.403 234.4L252.557 233.902C252.634 233.921 254.437 234.399 254.324 237.992Z" fill="#C87D79"/>
<path d="M278.277 239.183L277.703 239.141C278.028 235.558 279.878 235.259 279.957 235.248L280.05 235.757C280.035 235.76 278.562 236.05 278.277 239.183Z" fill="#C87D79"/>
<path d="M251.462 230.955C251.462 230.955 252.951 232.689 256.505 231.152C265.472 227.272 267.31 218.483 267.31 218.483C267.31 218.483 268.179 224.558 269.474 226.626C270.768 228.694 277.075 232.633 278.532 232.279C279.989 231.925 283.849 224.368 276.301 219.099C268.751 213.83 266.834 215.881 262.39 217.505C257.946 219.13 247.86 225.461 251.462 230.955Z" fill="#B94D59"/>
<path d="M267.889 218.36C272.534 218.36 276.299 214.982 276.299 210.815C276.299 206.648 272.534 203.27 267.889 203.27C263.244 203.27 259.479 206.648 259.479 210.815C259.479 214.982 263.244 218.36 267.889 218.36Z" fill="#B94D59"/>
<path d="M266.4 272.275C266.4 272.275 258.926 254.175 254.041 256.505C249.155 258.834 245.181 272.014 249.187 274.343C253.195 276.673 266.4 272.275 266.4 272.275Z" fill="#FEFADA"/>
<path d="M267.888 272.275C267.888 272.275 275.361 254.175 280.247 256.505C285.133 258.834 289.107 272.014 285.101 274.343C281.093 276.673 267.888 272.275 267.888 272.275Z" fill="#FEFADA"/>
<path d="M285.101 255.032C285.101 255.032 282.95 314.851 286.746 321.437C290.541 328.023 308.518 325.193 310.559 320.011C312.6 314.829 309.499 267.4 308.119 263.785C306.738 260.171 302.055 251.905 285.101 255.032Z" fill="#CA9661"/>
<path d="M252.823 255.032C252.823 255.032 254.974 314.851 251.179 321.437C247.383 328.023 229.406 325.193 227.365 320.011C225.324 314.829 228.425 267.4 229.805 263.785C231.186 260.171 235.869 251.905 252.823 255.032Z" fill="#CA9661"/>
<path d="M187.135 344.456C187.135 344.456 177.258 304.519 205.301 303.784C233.343 303.049 294.493 348.576 274.845 364.953C255.195 381.329 188.506 375.642 187.135 344.456Z" fill="#6A8185"/>
<path d="M352.988 344.456C352.988 344.456 358.513 304.426 330.47 303.692C302.428 302.958 234.392 348.577 254.042 364.954C273.691 381.33 351.617 375.642 352.988 344.456Z" fill="#6A8185"/>
<path d="M70.7311 372.513H273.501C273.501 372.513 254.087 311.042 194.766 311.463C135.446 311.884 110.638 361.27 66.417 334.075C66.417 334.075 54.5533 359.606 70.7311 372.513Z" fill="#FEFADA"/>
<path d="M460.213 372.513H257.443C257.443 372.513 276.857 311.042 336.178 311.463C395.498 311.884 420.306 361.27 464.527 334.075C464.527 334.075 476.391 359.606 460.213 372.513Z" fill="#FEFADA"/>
<path d="M248.147 255.615C248.147 255.615 248.134 248.788 246.616 244.431C245.098 240.073 244.185 234.312 245.608 236.296C247.031 238.28 248.595 241.127 248.595 241.127C248.595 241.127 247.128 235.917 248.003 235.797C248.879 235.677 252.373 240.564 252.373 240.564C252.373 240.564 249.533 235.868 251.815 236.096C254.097 236.325 265.344 248.869 259.002 260.381C256.347 265.202 252.441 260.329 248.147 255.615Z" fill="#DC9A8E"/>
<path d="M247.543 252.402C247.543 252.402 258.48 253.517 261.726 258.795C264.972 264.071 236.246 314.474 223.107 314.769C209.969 315.065 203.149 305.76 201.084 303.692C199.018 301.624 236.133 248.159 247.543 252.402Z" fill="#CA9661"/>
<path d="M284.01 255.615C284.01 255.615 284.024 248.788 285.542 244.431C287.06 240.073 287.973 234.312 286.549 236.296C285.127 238.28 283.563 241.127 283.563 241.127C283.563 241.127 285.029 235.917 284.154 235.797C283.278 235.677 279.784 240.564 279.784 240.564C279.784 240.564 282.624 235.868 280.342 236.096C278.059 236.325 266.912 251.045 273.154 260.381C276.238 264.992 279.717 260.329 284.01 255.615Z" fill="#DC9A8E"/>
<path d="M284.01 252.402C284.01 252.402 273.073 253.517 269.828 258.795C266.582 264.071 295.308 314.474 308.446 314.769C321.585 315.065 328.405 305.76 330.47 303.692C332.534 301.624 295.421 248.159 284.01 252.402Z" fill="#CA9661"/>
<path d="M244.239 255.032C244.239 255.032 238.795 297.199 235 303.785C231.204 310.372 203.125 308.874 201.084 303.692C199.042 298.511 219.84 267.4 221.221 263.786C222.601 260.171 227.284 251.905 244.239 255.032Z" fill="#CA9661"/>
<path d="M291.849 255.032C291.849 255.032 297.293 297.199 301.088 303.785C304.884 310.372 328.429 308.874 330.47 303.692C332.511 298.511 312.628 267.691 311.248 264.078C309.869 260.464 307.075 252.162 291.849 255.032Z" fill="#CA9661"/>
<path d="M322.945 292.618C313.935 273.165 296.886 256.307 291.787 255.284L291.913 254.78C297.782 255.958 314.962 274.037 323.476 292.421L322.945 292.618Z" fill="#A36E4C"/>
<path d="M295.895 306.476C295.799 306.331 286.303 291.996 284.28 289.98L284.708 289.635C286.768 291.687 295.998 305.62 296.39 306.211L295.895 306.476Z" fill="#A36E4C"/>
<path d="M246.751 241.766L246.549 241.281C246.759 241.211 251.708 239.578 253.632 240.44L253.372 240.903C251.961 240.268 248.114 241.309 246.751 241.766Z" fill="#C87D79"/>
<path d="M259.93 266.862C256.913 262.607 238.285 255.638 238.097 255.567L238.317 255.09C239.09 255.377 257.301 262.193 260.416 266.585L259.93 266.862Z" fill="#A36E4C"/>
<path d="M207.531 292.173L207.001 291.97C211.754 282 233.165 260.287 233.38 260.069L233.811 260.412C233.597 260.629 212.249 282.28 207.531 292.173Z" fill="#A36E4C"/>
<path d="M233.811 308.342L233.381 307.999C233.543 307.836 249.525 291.684 252.202 281.198L252.763 281.312C250.054 291.929 233.974 308.18 233.811 308.342Z" fill="#A36E4C"/>
<path d="M463.282 372.513H70.7311V390.955H463.282V372.513Z" fill="#C87D79"/>
<path d="M219.472 313.232C213.717 313.232 206.759 311.369 202.939 303.532C202.84 303.328 202.942 303.192 202.99 303.142C203.279 302.85 204.009 303.027 207.06 303.834C212.414 305.249 222.378 307.885 233.597 307.912L233.596 308.429C222.294 308.402 212.278 305.752 206.897 304.329C205.417 303.937 204.109 303.592 203.57 303.531C210.66 317.668 228.511 311.288 228.69 311.222L228.908 311.701C228.822 311.734 224.63 313.232 219.472 313.232Z" fill="#A36E4C"/>
<path d="M271.424 265.441L271.134 264.995C271.752 264.669 286.377 257.032 291.879 257.508L291.82 258.022C286.526 257.55 271.574 265.363 271.424 265.441Z" fill="#A36E4C"/>
<path d="M309.395 309.763C304.084 309.763 300.046 308.407 299.959 308.377L300.166 307.894C300.351 307.958 318.645 314.086 328.422 299.703L328.915 299.972C323.514 307.918 315.589 309.763 309.395 309.763Z" fill="#A36E4C"/>
<path d="M260.808 239.42C258.533 239.42 256.684 237.76 256.684 235.72C256.684 233.68 258.533 232.02 260.808 232.02C263.082 232.02 264.931 233.68 264.931 235.72C264.931 237.76 263.08 239.42 260.808 239.42ZM260.808 232.537C258.852 232.537 257.26 233.965 257.26 235.72C257.26 237.475 258.852 238.903 260.808 238.903C262.763 238.903 264.355 237.475 264.355 235.72C264.355 233.965 262.763 232.537 260.808 232.537Z" fill="#FEFADA"/>
<path d="M271.279 239.42C269.005 239.42 267.155 237.76 267.155 235.72C267.155 233.68 269.005 232.02 271.279 232.02C273.553 232.02 275.402 233.68 275.402 235.72C275.402 237.76 273.552 239.42 271.279 239.42ZM271.279 232.537C269.323 232.537 267.731 233.965 267.731 235.72C267.731 237.475 269.323 238.903 271.279 238.903C273.234 238.903 274.825 237.475 274.825 235.72C274.825 233.965 273.234 232.537 271.279 232.537Z" fill="#FEFADA"/>
<path d="M267.888 235.045H264.466V235.562H267.888V235.045Z" fill="#FEFADA"/>
<path d="M253.679 231.794L253.361 232.226L257.176 234.482L257.494 234.049L253.679 231.794Z" fill="#FEFADA"/>
<path d="M275.216 234.523L275.011 234.04L278.893 232.709L279.098 233.192L275.216 234.523Z" fill="#FEFADA"/>
<path d="M261.572 372.622C246.03 342.55 231.684 328.474 213.602 325.555C196.233 322.75 176.206 330.203 148.485 340.511C141.821 342.988 134.929 345.552 127.472 348.199C98.6469 358.429 79.258 360.076 69.8459 353.095C62.5604 347.689 64.3296 338.878 64.3481 338.789L64.914 338.886C64.8956 338.971 63.1932 347.493 70.2182 352.7C76.5702 357.407 91.6219 360.364 127.26 347.718C134.712 345.073 141.602 342.512 148.264 340.033C176.077 329.691 196.172 322.219 213.703 325.047C231.992 327.998 246.463 342.161 262.093 372.404L261.572 372.622Z" fill="#D3D0B1"/>
<path d="M252.253 373.273C252.025 373.001 228.99 346.109 191.934 348.868C179.457 349.794 163.32 353.874 146.234 358.194C111.499 366.977 75.5835 376.057 62.9234 360.919L63.3845 360.608C75.806 375.465 111.529 366.433 146.077 357.697C163.191 353.37 179.355 349.283 191.887 348.354C229.273 345.573 252.483 372.689 252.713 372.963L252.253 373.273Z" fill="#D3D0B1"/>
<path d="M143.602 372.755L143.402 372.27C162.06 366.091 188.887 359.668 210.708 364.149C223.813 366.842 228.815 372.123 229.021 372.348L228.578 372.678C228.528 372.623 223.457 367.284 210.515 364.64C198.553 362.197 177.231 361.619 143.602 372.755Z" fill="#D3D0B1"/>
<path d="M269.735 372.622L269.213 372.404C284.844 342.161 299.314 327.998 317.604 325.047C335.128 322.215 355.231 329.69 383.042 340.033C389.704 342.511 396.594 345.073 404.046 347.718C423.716 354.699 449.579 361.229 461.089 352.7C468.113 347.493 466.409 338.971 466.392 338.886L466.959 338.789C466.977 338.878 468.747 347.689 461.46 353.095C452.049 360.077 432.659 358.428 403.834 348.199C396.377 345.552 389.486 342.99 382.822 340.511C355.1 330.202 335.068 322.754 317.705 325.555C299.623 328.474 285.277 342.55 269.735 372.622Z" fill="#D3D0B1"/>
<path d="M279.053 373.273L278.594 372.962C278.824 372.688 302.037 345.575 339.419 348.353C351.951 349.282 368.115 353.37 385.229 357.697C419.777 366.431 455.501 375.465 467.92 360.607L468.381 360.918C455.721 376.058 419.805 366.976 385.072 358.193C367.986 353.873 351.848 349.793 339.372 348.867C302.309 346.122 279.281 373.002 279.053 373.273Z" fill="#D3D0B1"/>
<path d="M387.703 372.755C369.118 366.601 342.411 360.198 320.727 364.654C307.811 367.307 302.778 372.624 302.728 372.678L302.285 372.349C302.491 372.124 307.494 366.843 320.599 364.15C332.642 361.678 354.098 361.075 387.905 372.271L387.703 372.755Z" fill="#D3D0B1"/>
<path d="M255.468 231.797L255.371 231.288C255.88 231.21 267.836 229.246 267.012 217.604L267.586 217.572C268.035 223.899 264.714 227.433 261.847 229.283C258.751 231.281 255.6 231.777 255.468 231.797Z" fill="#B94D59"/>
<path d="M261.889 215.96C259.979 215.392 258.86 214.465 258.562 213.209C257.772 209.87 263.14 205.434 263.37 205.247L263.757 205.629C263.704 205.672 258.403 210.051 259.125 213.101C259.377 214.165 260.368 214.962 262.071 215.469L261.889 215.96Z" fill="#B94D59"/>
<path d="M272.843 217.2L272.708 216.698C272.738 216.691 275.699 216.028 276.55 213.963C277.15 212.508 276.589 210.69 274.879 208.561L275.347 208.259C277.177 210.538 277.763 212.518 277.089 214.145C276.128 216.468 272.977 217.172 272.843 217.2Z" fill="#B94D59"/>
<path d="M245.604 249.029C245.567 248.978 241.898 243.985 243.076 237.94C243.683 234.823 245.138 233.328 246.307 232.129C247.571 230.83 248.484 229.892 247.727 227.471C246.814 224.554 249.386 220.044 252.292 217.538C254.457 215.671 256.658 214.936 258.488 215.468L258.311 215.96C256.693 215.493 254.698 216.183 252.692 217.912C249.497 220.666 247.519 224.892 248.282 227.331C249.124 230.023 248.072 231.101 246.741 232.468C245.62 233.62 244.223 235.054 243.643 238.029C242.507 243.864 246.046 248.693 246.082 248.739L245.604 249.029Z" fill="#B94D59"/>
<path d="M257.392 228.696L257.262 228.194C262.431 227.118 264.498 222.954 264.696 219.715C264.786 218.246 264.425 217.509 264.212 217.442C264.135 217.42 263.986 217.503 263.798 217.739C261.642 220.448 252.056 227.69 251.648 227.997L251.278 227.601C251.377 227.527 261.214 220.094 263.33 217.438C263.762 216.897 264.149 216.875 264.405 216.955C265.156 217.192 265.345 218.551 265.273 219.744C265.062 223.161 262.873 227.557 257.392 228.696Z" fill="#934048"/>
<path d="M267.247 213.9C264.978 212.009 265.858 208.501 265.897 208.352L266.457 208.469C266.449 208.502 265.616 211.836 267.638 213.52L267.247 213.9Z" fill="#934048"/>
<path d="M268.809 213.989C268.581 213.989 268.432 213.968 268.412 213.966L268.007 213.907L268.206 213.584C270.032 210.627 270.684 207.111 270.69 207.076L271.259 207.159C271.234 207.301 270.637 210.52 268.93 213.466C269.353 213.45 270.014 213.345 270.565 212.909C271.302 212.324 271.65 211.315 271.6 209.906L272.177 209.89C272.232 211.462 271.816 212.609 270.94 213.301C270.194 213.891 269.31 213.989 268.809 213.989Z" fill="#934048"/>
<path d="M277.753 229.108C277.49 228.764 271.334 220.652 269.913 217.69L270.442 217.487C271.841 220.402 278.164 228.733 278.228 228.817L277.753 229.108Z" fill="#934048"/>
<path d="M282.149 234.005C281.727 226.282 276.13 219.88 276.074 219.816L276.524 219.495C276.583 219.56 282.293 226.093 282.725 233.978L282.149 234.005Z" fill="#934048"/>
<path d="M287.081 234.283C287.023 228.043 285.066 224.309 283.435 222.277C281.673 220.081 279.9 219.342 279.883 219.334L280.119 218.863C280.422 218.985 287.544 221.996 287.657 234.279L287.081 234.283Z" fill="#B94D59"/>
<path d="M284.259 241.675C282.961 240.06 278.298 240.912 278.251 240.921L278.133 240.414C278.34 240.378 283.212 239.488 284.727 241.372L284.259 241.675Z" fill="#C87D79"/>
</svg>
